<?xml version="1.0" encoding="UTF-8"?>
<svg xmlns="http://www.w3.org/2000/svg" xmlns:xlink="http://www.w3.org/1999/xlink" viewBox="0 0 256 256" width="256px" height="256px">
<g id="surface95770508">
<path style=" stroke:none;fill-rule:nonzero;fill:rgb(100%,100%,100%);fill-opacity:1;" d="M 188 139.347656 L 188 208 L 218.132812 208 C 225.792969 208 232 201.792969 232 194.132812 L 232 117.945312 Z M 188 128 L 232 98.667969 L 232 76.964844 C 232 69.308594 228.753906 61.839844 222.699219 57.152344 C 213.355469 49.914062 200.640625 50.460938 192.039062 57.757812 L 188 60.929688 Z M 79.257812 135.289062 L 128 164 L 177.394531 134.902344 L 173.773438 72.09375 L 128 108 L 82.871094 72.597656 Z M 68.613281 128.40625 L 68.613281 61.40625 L 63.960938 57.761719 C 55.359375 50.46875 42.644531 49.914062 33.304688 57.15625 C 27.246094 61.839844 24 69.3125 24 76.972656 L 24 98.667969 Z M 24 117.945312 L 24 194.132812 C 24 201.792969 30.207031 208 37.867188 208 L 68 208 L 68 139.347656 Z M 24 117.945312 "/>
</g>
</svg>
