<?xml version="1.0" encoding="UTF-8"?>
<svg xmlns="http://www.w3.org/2000/svg" xmlns:xlink="http://www.w3.org/1999/xlink" viewBox="0 0 600 600" width="600px" height="600px">
<g id="surface95779351">
<path style=" stroke:none;fill-rule:nonzero;fill:rgb(100%,100%,100%);fill-opacity:1;" d="M 300 56.25 C 165.394531 56.25 56.25 165.394531 56.25 300 C 56.25 422.203125 146.277344 523.117188 263.558594 540.742188 L 263.558594 364.59375 L 203.25 364.59375 L 203.25 300.523438 L 263.558594 300.523438 L 263.558594 257.886719 C 263.558594 187.304688 297.945312 156.328125 356.617188 156.328125 C 384.703125 156.328125 399.582031 158.417969 406.601562 159.355469 L 406.601562 215.277344 L 366.589844 215.277344 C 341.691406 215.277344 332.992188 238.902344 332.992188 265.507812 L 332.992188 300.523438 L 405.976562 300.523438 L 396.085938 364.59375 L 332.992188 364.59375 L 332.992188 541.246094 C 451.960938 525.121094 543.75 423.402344 543.75 300 C 543.75 165.394531 434.617188 56.25 300 56.25 Z M 300 56.25 "/>
</g>
</svg>
