<?xml version="1.0" encoding="UTF-8"?>
<svg xmlns="http://www.w3.org/2000/svg" xmlns:xlink="http://www.w3.org/1999/xlink" viewBox="0 0 256 256" width="256px" height="256px">
<g id="surface96055086">
<path style=" stroke:none;fill-rule:nonzero;fill:rgb(100%,100%,100%);fill-opacity:1;" d="M 86.320312 28 C 54.164062 28 28 54.179688 28 86.34375 L 28 169.671875 C 28 201.832031 54.179688 228 86.34375 228 L 169.671875 228 C 201.832031 228 228 201.820312 228 169.65625 L 228 86.320312 C 228 54.164062 201.820312 28 169.65625 28 Z M 188 60 C 192.414062 60 196 63.585938 196 68 C 196 72.414062 192.414062 76 188 76 C 183.585938 76 180 72.414062 180 68 C 180 63.585938 183.585938 60 188 60 Z M 128 76 C 156.679688 76 180 99.320312 180 128 C 180 156.679688 156.675781 180 128 180 C 99.320312 180 76 156.675781 76 128 C 76 99.324219 99.320312 76 128 76 Z M 128 92 C 108.117188 92 92 108.117188 92 128 C 92 147.882812 108.117188 164 128 164 C 147.882812 164 164 147.882812 164 128 C 164 108.117188 147.882812 92 128 92 Z M 128 92 "/>
</g>
</svg>
