<?xml version="1.0" encoding="UTF-8"?>
<svg xmlns="http://www.w3.org/2000/svg" xmlns:xlink="http://www.w3.org/1999/xlink" viewBox="0 0 512 512" width="512px" height="512px">
<g id="surface95777885">
<path style=" stroke:none;fill-rule:nonzero;fill:rgb(100%,100%,100%);fill-opacity:1;" d="M 256 64 C 149.960938 64 64 146.375 64 248 C 64 284.070312 74.875 317.695312 93.59375 346.09375 L 80 448 L 203.203125 424.890625 C 219.980469 429.484375 237.679688 432 256 432 C 362.039062 432 448 349.625 448 248 C 448 146.375 362.039062 64 256 64 Z M 256 91.4375 C 302.414062 90.964844 348.730469 111.503906 379.515625 146.734375 C 410.585938 181.773438 424.214844 231.601562 415.3125 277.890625 C 406.792969 324.433594 375.382812 365.390625 333.984375 387.796875 C 293.535156 409.484375 243.878906 413.617188 200.359375 398.328125 L 122.109375 415.71875 L 109.875 418.4375 L 112.1875 406.265625 L 112.1875 406.25 L 122.984375 340.484375 C 116.089844 329.445312 110.253906 317.867188 105.8125 305.796875 C 100.917969 291.84375 97.667969 277.390625 96.5 262.765625 C 95.925781 255.453125 95.804688 248.132812 96.390625 240.84375 C 96.527344 233.515625 97.777344 226.292969 99.015625 219.09375 C 102.152344 204.863281 106.53125 190.761719 113.578125 177.953125 C 120.320312 165.058594 128.613281 152.855469 138.8125 142.421875 C 143.582031 136.886719 149.351562 132.355469 154.734375 127.453125 C 160.636719 123.1875 166.285156 118.519531 172.703125 115.015625 C 197.535156 99.558594 226.832031 92.011719 256 91.4375 Z M 255.96875 112 C 230.425781 112.191406 204.664062 118.359375 182.640625 131.65625 C 176.9375 134.640625 171.960938 138.71875 166.6875 142.375 C 161.925781 146.65625 156.707031 150.519531 152.53125 155.421875 C 143.484375 164.550781 136.179688 175.273438 130.1875 186.578125 C 118.265625 209.339844 113.679688 235.578125 116.265625 260.96875 C 119.160156 286.320312 130.371094 310.527344 147.578125 328.71875 L 147.578125 328.734375 L 151.296875 333.296875 L 149.828125 338.53125 L 134.65625 392.375 L 199.265625 371.421875 L 199.28125 371.40625 L 202.78125 370.28125 L 206.5 371.75 C 243.445312 386.300781 286.546875 383.65625 321.859375 365.375 C 357.019531 346.886719 384.078125 312.644531 391.765625 273.40625 C 399.773438 234.277344 388.90625 191.800781 362.578125 161.265625 C 336.464844 130.601562 296.625 112.136719 255.96875 112 Z M 195.140625 169.984375 C 199.667969 170 212.5 169.984375 212.5 169.984375 L 229.859375 213.375 C 223.683594 223.046875 217.335938 228.445312 212.734375 233.71875 C 215.300781 239.976562 225.824219 255.578125 238.28125 266.53125 C 254.335938 280.609375 268.25 287.1875 278.1875 289.125 C 283.386719 285.253906 296.503906 269.597656 299.296875 265.453125 L 342.6875 282.8125 C 342.6875 291.492188 341.566406 296.070312 338.03125 305.734375 C 334.558594 315.398438 317.816406 324.230469 309.71875 325.390625 C 302.503906 326.480469 293.382812 326.894531 283.3125 323.765625 C 277.257812 321.863281 269.4375 319.335938 259.4375 315.046875 C 217.390625 297.085938 189.910156 255.308594 187.796875 252.515625 C 185.757812 249.796875 170.71875 230.0625 170.71875 209.71875 C 170.71875 189.375 181.527344 179.308594 185.40625 175.15625 C 189.214844 171.003906 192.355469 169.96875 195.140625 169.984375 Z M 195.140625 169.984375 "/>
</g>
</svg>
